<svg  viewBox="0 0 22 22"  xmlns="http://www.w3.org/2000/svg">
<path d="M12.6529 14.5433L12.6529 14.5433C12.9743 14.7673 13.053 15.2093 12.829 15.5307C12.6048 15.852 12.1627 15.9308 11.8414 15.7066L11.8414 15.7066C10.7295 14.9312 9.42188 14.5212 8.06097 14.5212C5.13931 14.5212 2.48946 16.4048 1.61937 19.11L1.61935 19.11C1.51979 19.4201 1.57275 19.7505 1.76464 20.0138C1.95652 20.2771 2.25469 20.4288 2.58042 20.4288H10.0562C10.4478 20.4288 10.7654 20.7463 10.7654 21.138C10.7654 21.5298 10.4478 21.8474 10.0562 21.8474H2.58042C1.79517 21.8474 1.08088 21.4841 0.618325 20.8494C0.155772 20.2146 0.0286766 19.4232 0.269125 18.6756C1.02358 16.33 2.87833 14.4873 5.16922 13.629L5.39784 13.5433L5.21811 13.3781C4.37579 12.6037 3.84745 11.494 3.84745 10.2628C3.84745 7.92937 5.74627 6.03069 8.07977 6.03069C9.85641 6.03069 11.3813 7.1314 12.0077 8.68755L12.0795 8.86593L12.2351 8.75287C12.6966 8.41742 13.1928 8.13173 13.7208 7.89938L13.7208 7.89937C13.8366 7.84839 13.9537 7.80045 14.0717 7.75506L14.298 7.66802L14.1191 7.50438C13.2723 6.7297 12.741 5.61684 12.741 4.38232C12.741 2.04866 14.6397 0.15 16.9731 0.15C19.3068 0.15 21.2055 2.04867 21.2055 4.38232C21.2055 5.62186 20.6698 6.73878 19.8171 7.51379L19.6378 7.67677L19.8637 7.76459C20.4538 7.9941 21.0183 8.29412 21.5464 8.66258L21.5465 8.6626C21.8677 8.88659 21.9464 9.32868 21.7224 9.65C21.4982 9.97143 21.0563 10.0501 20.7348 9.82594C19.6229 9.05048 18.3154 8.64049 16.9543 8.64049C15.211 8.64049 13.5835 9.30362 12.3426 10.5128L12.3023 10.552L12.2978 10.6081C12.2087 11.7087 11.6965 12.6921 10.9238 13.3945L10.7444 13.5575L10.9703 13.6453C11.5604 13.8746 12.1247 14.1748 12.6529 14.5433ZM18.7777 18.625H18.6277V18.775V21.138C18.6277 21.5298 18.3101 21.8474 17.9185 21.8474C17.5266 21.8474 17.2091 21.5298 17.2091 21.138V18.775V18.625H17.0591H14.6961C14.3045 18.625 13.9869 18.3075 13.9869 17.9158C13.9869 17.524 14.3045 17.2065 14.6961 17.2065H17.0591H17.2091V17.0565V14.6935C17.2091 14.3019 17.5266 13.9843 17.9185 13.9843C18.3101 13.9843 18.6277 14.3018 18.6277 14.6935V17.0565V17.2065H18.7777H21.1406C21.5325 17.2065 21.85 17.524 21.85 17.9158C21.85 18.3075 21.5325 18.625 21.1406 18.625H18.7777ZM19.7869 4.38232C19.7869 2.83065 18.5248 1.56859 16.9731 1.56859C15.4216 1.56859 14.1594 2.83064 14.1594 4.38232C14.1594 5.93383 15.4216 7.19605 16.9731 7.19605C18.5248 7.19605 19.7869 5.93382 19.7869 4.38232ZM10.8935 10.2628C10.8935 8.71135 9.63144 7.44911 8.07977 7.44911C6.52809 7.44911 5.26603 8.71135 5.26603 10.2628C5.26603 11.8145 6.52809 13.0766 8.07977 13.0766C9.63144 13.0766 10.8935 11.8145 10.8935 10.2628Z" fill="#28235F" stroke="#F3F2F2" stroke-width="0.3"/>
</svg>
