<svg  viewBox="0 0 22 23" xmlns="http://www.w3.org/2000/svg">
<path d="M19.6 3.34545V0H0V19.6545H2.8V22.5818H22V3.34545H19.6ZM0.8 18.8182V0.836364H18.8V3.34545H2.8V18.8182H0.8ZM21.2 21.7455H3.6V19.6545V4.18182H19.6H21.2V21.7455Z" fill="#28235F"/>
<path d="M16.7996 12.5453H12.7996V8.36349C12.7996 8.13224 12.6208 7.94531 12.3996 7.94531C12.1784 7.94531 11.9996 8.13224 11.9996 8.36349V12.5453H7.99961C7.77841 12.5453 7.59961 12.7322 7.59961 12.9635C7.59961 13.1947 7.77841 13.3817 7.99961 13.3817H11.9996V17.5635C11.9996 17.7948 12.1784 17.9817 12.3996 17.9817C12.6208 17.9817 12.7996 17.7948 12.7996 17.5635V13.3817H16.7996C17.0208 13.3817 17.1996 13.1947 17.1996 12.9635C17.1996 12.7322 17.0208 12.5453 16.7996 12.5453Z" fill="#28235F"/>
</svg>
