<svg  viewBox="0 0 22 21"  xmlns="http://www.w3.org/2000/svg">
<path d="M21.5739 2.37046H17.0722V0.426087C17.0722 0.190603 16.8813 0 16.6461 0C16.4109 0 16.22 0.190603 16.22 0.426087V2.37046H5.2937V0.426087C5.2937 0.190603 5.1031 0 4.86762 0C4.63213 0 4.44153 0.190603 4.44153 0.426087V2.37046H0.426087C0.190603 2.37046 0 2.56107 0 2.79655V20.5331C0 20.7683 0.190603 20.9592 0.426087 20.9592H21.5739C21.8091 20.9592 22 20.7683 22 20.5331V2.79655C22 2.56107 21.8091 2.37046 21.5739 2.37046ZM21.1478 20.107H0.852174V3.22264H4.44153V4.51254C4.44153 4.74803 4.63213 4.93863 4.86762 4.93863C5.1031 4.93863 5.2937 4.74803 5.2937 4.51254V3.22264H16.22V4.51254C16.22 4.74803 16.4109 4.93863 16.6461 4.93863C16.8813 4.93863 17.0722 4.74803 17.0722 4.51254V3.22264H21.1478V20.107Z" fill="#28235F"/>
<path d="M16.9364 14.5542L15.4988 13.1161C15.3324 12.9496 15.0628 12.9496 14.8963 13.1161C14.7299 13.2822 14.7299 13.5521 14.8963 13.7185L16.3339 15.1567L14.8963 16.5949C14.7299 16.7614 14.7299 17.0312 14.8963 17.1974C14.9796 17.2806 15.0886 17.3221 15.1977 17.3221C15.3068 17.3221 15.4159 17.2806 15.4991 17.1974L16.9367 15.7592L18.3743 17.1974C18.4576 17.2806 18.5666 17.3221 18.6757 17.3221C18.7848 17.3221 18.8939 17.2806 18.9771 17.1974C19.1436 17.0312 19.1436 16.7614 18.9771 16.5949L17.5395 15.1567L18.9771 13.7185C19.1436 13.5521 19.1436 13.2822 18.9771 13.1161C18.8106 12.9496 18.5411 12.9496 18.3746 13.1161L16.9364 14.5542Z" fill="#28235F"/>
<path d="M6.44006 7.23535H3.81281C3.57732 7.23535 3.38672 7.42595 3.38672 7.66144V10.2881C3.38672 10.5236 3.57732 10.7142 3.81281 10.7142H6.44006C6.67554 10.7142 6.86614 10.5233 6.86614 10.2881V7.66144C6.86614 7.42595 6.67554 7.23535 6.44006 7.23535ZM6.01397 9.86203H4.23889V8.08752H6.01397V9.86203Z" fill="#28235F"/>
<path d="M12.4265 7.23535H9.80011C9.56463 7.23535 9.37402 7.42595 9.37402 7.66144V10.2881C9.37402 10.5236 9.56463 10.7142 9.80011 10.7142H12.4265C12.6617 10.7142 12.8526 10.5233 12.8526 10.2881V7.66144C12.8526 7.42595 12.662 7.23535 12.4265 7.23535ZM12.0004 9.86203H10.2262V8.08752H12.0004V9.86203Z" fill="#28235F"/>
<path d="M6.44006 13.2773H3.81281C3.57732 13.2773 3.38672 13.4682 3.38672 13.7034V16.3301C3.38672 16.5653 3.57732 16.7562 3.81281 16.7562H6.44006C6.67554 16.7562 6.86614 16.5653 6.86614 16.3301V13.7034C6.86614 13.4682 6.67554 13.2773 6.44006 13.2773ZM6.01397 15.904H4.23889V14.1295H6.01397V15.904Z" fill="#28235F"/>
<path d="M12.4265 13.2773H9.80011C9.56463 13.2773 9.37402 13.4682 9.37402 13.7034V16.3301C9.37402 16.5653 9.56463 16.7562 9.80011 16.7562H12.4265C12.6617 16.7562 12.8526 16.5653 12.8526 16.3301V13.7034C12.8526 13.4682 12.662 13.2773 12.4265 13.2773ZM12.0004 15.904H10.2262V14.1295H12.0004V15.904Z" fill="#28235F"/>
<path d="M15.512 7.23535C15.2768 7.23535 15.0859 7.42595 15.0859 7.66144V10.2881C15.0859 10.5236 15.2768 10.7142 15.512 10.7142H18.1393C18.3745 10.7142 18.5654 10.5233 18.5654 10.2881V7.66144C18.5654 7.42595 18.3745 7.23535 18.1393 7.23535H15.512ZM17.7132 9.86203H15.9381V8.08752H17.7132V9.86203Z" fill="#28235F"/>
</svg>
