<svg viewBox="0 0 11 11" xmlns="http://www.w3.org/2000/svg">
<circle cx="5.5" cy="5.5" r="5.5" fill="#7F7AB3"/>
<path d="M2.2464 3.03039V3.88839H3.1704V7.65039H4.2396V3.03039H2.2464ZM6.62617 4.76619H6.24997L6.32257 3.88839H8.24977V3.03039H5.43157L5.19397 5.63079H6.37537C7.21357 5.63079 7.45117 5.86839 7.45117 6.23139C7.45117 6.60759 7.12117 6.83199 6.58657 6.83199C6.10477 6.83199 5.62297 6.68019 5.27317 6.41619L4.85077 7.23459C5.29957 7.55139 5.97277 7.72959 6.61297 7.72959C7.93297 7.72959 8.53357 7.01679 8.53357 6.19839C8.53357 5.37999 7.99237 4.76619 6.62617 4.76619Z" fill="white"/>
</svg>
