<svg viewBox="0 0 25 23" fill="none" xmlns="http://www.w3.org/2000/svg">
<path d="M23.2282 1.78419C22.047 0.594562 20.4149 0 18.3313 0C17.7548 0 17.1663 0.103108 16.5665 0.309225C15.9665 0.515492 15.4084 0.793774 14.8926 1.14387C14.3763 1.49386 13.9325 1.82254 13.5602 2.1294C13.1883 2.43636 12.8348 2.76256 12.5 3.10777C12.1651 2.76256 11.8117 2.43636 11.4398 2.1294C11.0676 1.82254 10.6237 1.49407 10.1074 1.14387C9.59116 0.793623 9.03308 0.515543 8.43323 0.309225C7.83342 0.103159 7.24505 0 6.66846 0C4.58505 0 2.9529 0.594713 1.77176 1.78419C0.590618 2.97357 0 4.6233 0 6.73355C0 7.37624 0.109455 8.03823 0.327926 8.71902C0.546396 9.40006 0.795358 9.98046 1.07432 10.46C1.35324 10.9394 1.66953 11.4072 2.02297 11.8628C2.3764 12.3185 2.63469 12.6324 2.79726 12.8052C2.95998 12.9776 3.08791 13.1024 3.18089 13.179L11.8861 21.8408C12.0536 22.0136 12.2582 22.1 12.5 22.1C12.7418 22.1 12.9465 22.0136 13.1139 21.8411L21.8053 13.2081C23.9352 11.0117 25 8.85343 25 6.73355C25 4.6233 24.4093 2.97357 23.2282 1.78419Z" fill="#FF1717"/>
</svg>
