<svg viewBox="0 0 36 36" fill="none" xmlns="http://www.w3.org/2000/svg">
<path d="M25.3191 17.4605L25.319 17.4605L13.5372 10.0968C13.5372 10.0968 13.5372 10.0968 13.5372 10.0968C13.3409 9.97409 13.0936 9.96767 12.8915 10.0797C12.6891 10.1919 12.5636 10.4051 12.5636 10.6364V25.3637C12.5636 25.595 12.6891 25.8081 12.8914 25.9203L25.3191 17.4605ZM25.3191 17.4605C25.5051 17.5768 25.6181 17.7807 25.618 18V18.0002C25.618 18.2196 25.505 18.4235 25.319 18.5398L25.319 18.5398L13.5371 25.9033L13.5371 25.9034M25.3191 17.4605L13.5371 25.9034M13.5371 25.9034C13.4342 25.9677 13.3173 26.0001 13.1999 26.0001C13.0935 26.0001 12.9876 25.9736 12.8915 25.9204L13.5371 25.9034Z" fill="#28235F" fill-opacity="0.8" stroke="#F3F2F2" stroke-width="2"/>
<path d="M0.35 18C0.35 8.2681 8.2681 0.35 18 0.35C27.7319 0.35 35.65 8.2681 35.65 18C35.65 27.7319 27.7319 35.65 18 35.65C8.2681 35.65 0.35 27.7319 0.35 18ZM2.92273 18C2.92273 26.3139 9.68597 33.0773 18 33.0773C26.3139 33.0773 33.0773 26.3139 33.0773 18C33.0773 9.68608 26.314 2.92273 18 2.92273C9.68597 2.92273 2.92273 9.68608 2.92273 18Z" fill="#28235F" fill-opacity="0.8" stroke="#F3F2F2" stroke-width="0.7"/>
</svg>
